<svg width="22" height="17" viewBox="0 0 22 17" fill="none" xmlns="http://www.w3.org/2000/svg">
<path d="M16.2276 6.75005C16.235 6.75002 16.2425 6.75 16.25 6.75C18.7353 6.75 20.75 8.76472 20.75 11.25C20.75 13.7353 18.7353 15.75 16.25 15.75H5.75C2.98858 15.75 0.75 13.5114 0.75 10.75C0.75 8.15034 2.73398 6.01407 5.27042 5.7727M16.2276 6.75005C16.2424 6.58536 16.25 6.41856 16.25 6.25C16.25 3.21243 13.7876 0.75 10.75 0.75C7.87324 0.75 5.51233 2.95862 5.27042 5.7727M16.2276 6.75005C16.1253 7.8845 15.6786 8.91961 14.9928 9.75M5.27042 5.7727C5.42826 5.75768 5.58823 5.75 5.75 5.75C6.87582 5.75 7.91474 6.12209 8.75049 6.75" stroke="#D1D5DB" stroke-width="1.5" stroke-linecap="round" stroke-linejoin="round"/>
</svg>
