<svg width="118" height="118" viewBox="0 0 118 118" fill="none" xmlns="http://www.w3.org/2000/svg">
<path d="M29.5 39.3333C34.9308 39.3333 39.3334 34.9308 39.3334 29.5C39.3334 24.0692 34.9308 19.6666 29.5 19.6666C24.0692 19.6666 19.6667 24.0692 19.6667 29.5C19.6667 34.9308 24.0692 39.3333 29.5 39.3333Z" stroke="#D1D5DB" stroke-width="8.5"/>
<path d="M33.8333 103.667C39.2643 103.667 43.6667 99.2643 43.6667 93.8333C43.6667 88.4024 39.2643 84 33.8333 84C28.4024 84 24 88.4024 24 93.8333C24 99.2643 28.4024 103.667 33.8333 103.667Z" stroke="#D1D5DB" stroke-width="8.5"/>
<path d="M88.5 39.3333C93.931 39.3333 98.3334 34.9308 98.3334 29.5C98.3334 24.0692 93.931 19.6666 88.5 19.6666C83.0691 19.6666 78.6667 24.0692 78.6667 29.5C78.6667 34.9308 83.0691 39.3333 88.5 39.3333Z" stroke="#D1D5DB" stroke-width="8.5"/>
<path d="M29.5853 42.9768C29.5853 51.2051 31.5614 59.9828 48.5 58.9302H32M32 58.9302H77.615C83.1895 57.8451 89.119 58.9302 88.4651 42.168M32 58.9302L32.5 82" stroke="#D1D5DB" stroke-width="8.5" stroke-linecap="round" stroke-linejoin="round"/>
</svg>
