<svg width="17" height="15" viewBox="0 0 17 15" fill="none" xmlns="http://www.w3.org/2000/svg">
<path fill-rule="evenodd" clip-rule="evenodd" d="M15.0025 0H10.0025L8.00252 1.16L6.00252 0H1.00252C0.407933 0.0478952 -0.037711 0.564843 0.00252321 1.16V11.85C-0.0375507 12.4433 0.409452 12.9573 1.00252 13H7.07252L8.07252 14.16L9.07252 13H15.0725C15.6656 12.9573 16.1126 12.4433 16.0725 11.85V1.16C16.0917 0.862433 15.9882 0.569997 15.786 0.350817C15.5838 0.131638 15.3007 0.00485321 15.0025 0ZM2.00252 2H5.46252L7.00252 2.89V11H2.00252V2ZM9.00252 11H14.0025V2H10.5425L9.00252 2.89V11Z" fill="#D1D5DB"/>
</svg>
